<svg width="292" height="164" viewBox="0 0 292 164" fill="none" xmlns="http://www.w3.org/2000/svg">
<path d="M47.8516 33.9046C35.6121 48.6297 26.8696 66.9314 17.4801 83.628C10.7484 95.7012 21.8164 108.245 34.528 105.768C49.8799 102.785 77.8035 86.245 71.0193 67.1233C68.6063 60.3365 62.1019 55.9923 54.7582 57.9114C47.0997 59.9178 45.1764 65.3786 40.0708 70.2637C36.2861 73.7124 31.5552 75.9543 26.4849 76.7016L43.5503 98.9114C52.7824 82.2148 63.9378 64.9774 69.9352 46.8152C73.8868 34.6199 56.4018 23.7157 47.8516 33.9046Z" fill="#F9F416"/>
<path d="M250.939 35.056C243.561 40.7786 239.015 48.8739 234.049 56.6202L219.134 79.7198C215.043 86.0879 217.228 95.1079 223.086 99.4871C229.695 104.425 237.074 103.133 243.246 98.2832C251.447 91.8977 259.577 85.4249 267.725 78.9871L243.858 75.9164C245.432 79.6326 246.533 83.5232 247.775 87.3615C254.769 109.153 287.78 95.8756 276.992 75.1488C275.121 71.5547 273.18 68.0479 271.624 64.2968C266.991 53.0262 255.888 50.1824 246.218 57.5973C237.983 63.9479 229.713 70.2811 221.495 76.6841L245.607 95.2475L259.595 71.5547C264.263 63.6513 269.316 55.9398 271.1 46.7977C273.53 34.3058 260.381 27.6934 250.887 35.056H250.939Z" fill="#F9F416"/>
<path d="M113.369 51.8051C114.313 59.5864 114.155 67.42 115.117 75.1489L135.61 69.566C133.934 66.1902 133.391 62.366 134.062 58.6587C134.732 54.9515 136.58 51.5578 139.333 48.9795C142.086 46.4011 145.597 44.7749 149.347 44.3412C153.097 43.9075 156.888 44.6893 160.159 46.5711L166.68 22.5643C145.331 20.1392 132.305 44.0064 143.023 61.4706L164.005 45.2451L150.14 33.9396C140.733 26.2804 128.616 31.5145 127.304 43.3783L125.381 60.9996H152.133C151.906 63.8085 151.346 61.9243 153.532 61.3834C155.593 60.474 157.566 59.376 159.424 58.1034L173.954 50.3396C189.289 42.157 175.58 18.6213 160.298 27.0306C145.524 35.1783 127.077 41.8953 125.451 60.9821C124.839 68.1528 132.025 74.294 138.792 74.294C146.678 74.294 151.311 68.1528 152.133 60.9821L154.144 43.3609L131.308 52.817L145.121 64.1749C156.224 73.2996 174.601 61.8196 166.103 47.9494C165.299 46.6409 162.606 48.0715 166.593 48.3681C179.305 49.3277 184.27 30.0315 173.115 24.3613C156.574 15.9519 135.977 17.7664 122.548 31.2353C109.539 44.303 107.948 64.8553 116.516 80.6272C123.51 93.3983 140.995 82.1626 135.54 69.5311C132.48 62.3779 128.423 55.6957 125.328 48.4902C122.863 42.7328 112.547 45.5417 113.299 51.7353L113.369 51.8051Z" fill="#F9F416"/>
<path d="M122.949 93.6774C122.652 104.861 123.369 116.097 123.719 127.263C124.138 140.383 143.739 140.4 144.159 127.263C144.771 108.071 145.12 88.8796 145.593 69.6881L125.153 72.4447L142.27 143.575C145.12 155.439 162.728 152.456 163.078 140.766C163.777 118.33 163.882 95.8932 164.476 73.4566C164.826 60.1621 145.82 60.9647 144.281 73.4566C141.29 97.5692 144.292 122.046 153.024 144.727C157.238 155.666 174.74 155.003 174.618 141.813C174.355 116.219 173.708 90.6591 173.044 65.0472L151.223 68.0306C153.688 79.2664 155.996 90.5196 158.217 101.773C160.874 114.614 180.143 111.124 180.545 98.7719C181.046 83.2791 181.466 67.7864 181.804 52.2936H158.392C159.091 62.5349 159.685 72.7936 160.315 83.0523C161.259 98.3881 185.493 98.3183 184.252 83.0523C183.413 72.7936 182.503 62.5523 181.804 52.2936C180.702 37.4638 158.654 37.08 158.392 52.2936C158.135 67.7864 157.96 83.2791 157.867 98.7719L180.125 95.771C177.555 84.5702 175.037 73.3693 172.642 62.1336C170.054 49.8336 150.593 52.6774 150.821 65.0821C151.293 90.6591 151.782 116.236 152.657 141.848L174.251 138.934C165.607 118.266 162.254 95.7757 164.494 73.4915H144.281C143.599 95.9281 142.533 118.347 141.886 140.801L162.693 137.992L145.208 66.9664C142.375 55.434 124.995 58.243 124.785 69.723C124.418 88.9145 123.946 108.106 123.719 127.297H144.159C142.777 115.346 141.763 103.291 139.7 91.4442C137.952 81.7089 123.212 84.4655 122.949 93.7123V93.6774Z" fill="#D00132"/>
<path d="M80.2439 91.1168C81.0117 91.1168 81.626 91.0402 82.0867 90.887C82.7009 90.7337 83.3152 90.8103 83.9294 91.1168C85.0044 91.5765 85.7722 92.4193 86.2329 93.6451C86.8472 94.8709 87.0775 96.25 86.924 97.7823C86.924 99.1614 86.6168 100.54 86.0026 101.919C85.3883 103.299 84.5437 104.295 83.4688 104.907C83.008 105.214 82.5474 105.367 82.0867 105.367C81.626 105.367 81.0117 105.444 80.2439 105.597C80.2439 110.347 80.1671 115.174 80.0135 120.077C80.0135 124.981 80.0903 129.577 80.2439 133.868C80.551 138.005 81.0117 141.683 81.626 144.9C82.2402 148.118 83.2384 150.417 84.6205 151.796C86.7704 153.022 87.7686 154.324 87.615 155.703C87.4614 156.929 86.6168 158.078 85.0812 159.151C83.6991 160.07 81.8563 160.836 79.5528 161.449C77.2494 162.062 74.9459 162.369 72.6424 162.369C70.4925 162.369 68.6497 161.985 67.1141 161.219C65.5784 160.453 64.8106 159.151 64.8106 157.312C64.8106 148.118 64.7338 139.307 64.5802 130.88C64.5802 122.452 64.5802 114.331 64.5802 106.516C56.7484 106.823 49.3773 106.976 42.4668 106.976C35.71 106.976 29.7209 106.823 24.4997 106.516C19.2785 106.057 14.9019 105.291 11.3699 104.218C7.83789 103.145 5.38085 101.613 3.99876 99.621C2.77024 97.7823 2.00241 96.0968 1.69528 94.5645C1.54172 92.8789 1.69528 91.3466 2.15598 89.9676C2.77024 88.4353 3.61485 86.8264 4.6898 85.1409C5.76476 83.4553 6.99328 81.54 8.37537 79.3947C8.98963 78.4754 10.6021 76.0237 13.2127 72.0397C15.9768 68.0558 19.2017 63.4589 22.8873 58.2491C26.5728 52.886 30.4888 47.2165 34.635 41.2406C38.9348 35.1114 42.9275 29.4419 46.6131 24.2321C50.4522 19.0223 53.7539 14.6553 56.5181 11.131C59.2822 7.45348 61.125 5.30827 62.0464 4.69535C64.1963 3.31629 66.3462 2.39692 68.4961 1.93722C70.7996 1.47753 72.796 1.47753 74.4852 1.93722C76.328 2.24368 77.7868 2.93321 78.8618 4.00582C79.9368 4.9252 80.4742 6.07442 80.4742 7.45348C80.4742 21.7038 80.3974 35.4945 80.2439 48.8255C80.2439 62.1564 80.2439 76.2535 80.2439 91.1168ZM63.4285 28.829C62.8142 28.2161 61.4321 29.2121 59.2822 31.817C57.1323 34.2687 54.4449 37.6397 51.2201 41.9301C48.1488 46.0673 44.7703 50.8941 41.0848 56.4103C37.3992 61.7734 33.7136 66.9832 30.0281 72.0397C27.7246 75.2575 25.5747 78.1689 23.5783 80.7738C21.582 83.2255 20.2767 85.3707 19.6624 87.2095C19.0481 88.895 19.3553 90.1974 20.5838 91.1168C21.9659 91.8829 24.8068 92.1894 29.1067 92.0362C32.0244 92.0362 35.3261 92.1128 39.0116 92.266C42.8508 92.266 46.4595 92.266 49.838 92.266C53.37 92.266 56.4413 92.266 59.0519 92.266C61.8161 92.1128 63.6588 91.883 64.5802 91.5765C64.5802 84.2215 64.5034 76.7132 64.3499 69.0517C64.3499 61.3903 64.4267 52.9627 64.5802 43.7689C64.5802 40.7043 64.5802 37.6397 64.5802 34.5751C64.5802 31.5105 64.1963 29.5951 63.4285 28.829Z" fill="black"/>
<path d="M101.337 79.8544C101.337 65.9105 102.873 54.1119 105.944 44.4584C109.015 34.6517 113.008 26.2241 117.922 19.1755C120.225 15.9577 122.913 13.1996 125.984 10.9011C129.209 8.6027 132.587 6.68734 136.119 5.15504C139.651 3.62275 143.26 2.55014 146.946 1.93722C150.631 1.3243 154.163 1.24769 157.542 1.70738C164.606 2.47353 170.364 5.07843 174.818 9.52208C179.271 13.9657 183.264 19.5586 186.796 26.3007C189.407 31.5105 191.326 37.4865 192.555 44.2286C193.937 50.8174 195.012 57.3297 195.779 63.7653C196.394 69.1284 196.701 75.0277 196.701 81.4633C196.854 87.7458 196.624 94.258 196.01 101C195.396 107.589 194.244 114.178 192.555 120.767C191.019 127.202 188.792 133.178 185.875 138.695C183.11 144.058 179.578 148.731 175.279 152.715C171.132 156.699 166.065 159.534 160.076 161.219C154.394 162.752 148.405 163.135 142.108 162.369C135.812 161.602 130.591 159.61 126.445 156.393C120.763 152.102 116.233 147.275 112.854 141.912C109.629 136.396 107.096 130.42 105.253 123.985C103.564 117.549 102.489 110.654 102.028 103.299C101.567 95.9435 101.337 88.1288 101.337 79.8544ZM117.692 78.4754C117.692 83.9916 117.845 90.7337 118.152 98.7017C118.613 106.67 119.841 114.331 121.838 121.686C123.834 129.041 126.982 135.324 131.282 140.533C135.735 145.743 141.878 148.348 149.71 148.348C155.699 148.348 160.613 146.279 164.452 142.142C168.291 137.852 171.363 132.872 173.666 127.202C175.97 121.533 177.582 115.787 178.503 109.964C179.578 104.141 180.193 99.5444 180.346 96.1734C180.346 93.262 180.346 89.2014 180.346 83.9916C180.5 78.7818 180.346 73.1889 179.885 67.213C179.425 61.237 178.58 55.1079 177.352 48.8255C176.277 42.543 174.664 36.9502 172.514 32.0468C170.364 27.1435 167.523 23.1595 163.991 20.0949C160.613 17.0303 156.39 15.6513 151.322 15.9577C146.562 16.2642 142.416 17.6433 138.884 20.0949C135.505 22.3934 132.511 25.3813 129.9 29.0588C127.443 32.5831 125.37 36.6437 123.681 41.2406C122.145 45.8375 120.916 50.4344 119.995 55.0313C119.227 59.4749 118.613 63.7653 118.152 67.9025C117.845 72.0397 117.692 75.564 117.692 78.4754Z" fill="black"/>
<path d="M283.148 91.1168C283.916 91.1168 284.53 91.0402 284.991 90.887C285.605 90.7337 286.219 90.8103 286.833 91.1168C287.908 91.5765 288.676 92.4193 289.137 93.6451C289.751 94.8709 289.982 96.25 289.828 97.7823C289.828 99.1614 289.521 100.54 288.907 101.919C288.292 103.299 287.448 104.295 286.373 104.907C285.912 105.214 285.451 105.367 284.991 105.367C284.53 105.367 283.916 105.444 283.148 105.597C283.148 110.347 283.071 115.174 282.918 120.077C282.918 124.981 282.994 129.577 283.148 133.868C283.455 138.005 283.916 141.683 284.53 144.9C285.144 148.118 286.142 150.417 287.524 151.796C289.674 153.022 290.673 154.324 290.519 155.703C290.365 156.929 289.521 158.078 287.985 159.151C286.603 160.07 284.76 160.836 282.457 161.449C280.153 162.062 277.85 162.369 275.546 162.369C273.396 162.369 271.554 161.985 270.018 161.219C268.482 160.453 267.715 159.151 267.715 157.312C267.715 148.118 267.638 139.307 267.484 130.88C267.484 122.452 267.484 114.331 267.484 106.516C259.652 106.823 252.281 106.976 245.371 106.976C238.614 106.976 232.625 106.823 227.404 106.516C222.182 106.057 217.806 105.291 214.274 104.218C210.742 103.145 208.285 101.613 206.903 99.621C205.674 97.7823 204.906 96.0968 204.599 94.5645C204.446 92.8789 204.599 91.3466 205.06 89.9676C205.674 88.4353 206.519 86.8264 207.594 85.1409C208.669 83.4553 209.897 81.54 211.279 79.3947C211.894 78.4754 213.506 76.0237 216.117 72.0397C218.881 68.0558 222.106 63.4589 225.791 58.2491C229.477 52.886 233.393 47.2165 237.539 41.2406C241.839 35.1114 245.832 29.4419 249.517 24.2321C253.356 19.0223 256.658 14.6553 259.422 11.131C262.186 7.45348 264.029 5.30827 264.95 4.69535C267.1 3.31629 269.25 2.39692 271.4 1.93722C273.704 1.47753 275.7 1.47753 277.389 1.93722C279.232 2.24368 280.691 2.93321 281.766 4.00582C282.841 4.9252 283.378 6.07442 283.378 7.45348C283.378 21.7038 283.301 35.4945 283.148 48.8255C283.148 62.1564 283.148 76.2535 283.148 91.1168ZM266.332 28.829C265.718 28.2161 264.336 29.2121 262.186 31.817C260.036 34.2687 257.349 37.6397 254.124 41.9301C251.053 46.0673 247.674 50.8941 243.989 56.4103C240.303 61.7734 236.618 66.9832 232.932 72.0397C230.629 75.2575 228.479 78.1689 226.482 80.7738C224.486 83.2255 223.181 85.3707 222.566 87.2095C221.952 88.895 222.259 90.1974 223.488 91.1168C224.87 91.8829 227.711 92.1894 232.011 92.0362C234.928 92.0362 238.23 92.1128 241.916 92.266C245.755 92.266 249.364 92.266 252.742 92.266C256.274 92.266 259.345 92.266 261.956 92.266C264.72 92.1128 266.563 91.883 267.484 91.5765C267.484 84.2215 267.407 76.7132 267.254 69.0517C267.254 61.3903 267.331 52.9627 267.484 43.7689C267.484 40.7043 267.484 37.6397 267.484 34.5751C267.484 31.5105 267.1 29.5951 266.332 28.829Z" fill="black"/>
</svg>
