<svg width="1919" height="979" viewBox="0 0 1919 979" fill="none" xmlns="http://www.w3.org/2000/svg">
<path d="M1919 0H-1V858.186C-1 858.186 74.4996 527.5 110.5 609.5C146.5 691.5 156.242 787.535 209.5 870.147C255.5 941.5 309.5 849.5 315.5 815.5C320.3 788.3 342.289 767.011 357 770.071C408.5 780.786 398 887.968 425.507 905.606C447.639 919.797 478.273 913.039 499.5 902.417C703.145 800.517 608.634 915.861 682.382 918.215C717.731 919.342 754.424 920.278 792.453 920.985C845.233 921.966 920.994 952.35 959 979C992.997 952.393 1060.61 922.07 1108.58 921.268C1158.15 920.441 1291.5 910.277 1303 870.147C1311.28 841.24 1326.5 933.725 1416.7 910.277C1457.79 899.595 1433.73 820.491 1464.5 801.727C1516.5 784.195 1496.6 905.606 1554.82 901.111C1700.54 889.861 1590.5 696.532 1636.5 661.468C1712.5 628.351 1792.5 836.997 1836.5 879.133C1880.5 921.268 1919 858.186 1919 858.186V0Z" fill="#EFEFEF"/>
<path d="M1919 0H-1V858.186C-1 858.186 74.4996 527.5 110.5 609.5C146.5 691.5 156.242 787.535 209.5 870.147C255.5 941.5 309.5 849.5 315.5 815.5C320.3 788.3 342.289 767.011 357 770.071C408.5 780.786 398 887.968 425.507 905.606C447.639 919.797 478.273 913.039 499.5 902.417C703.145 800.517 608.634 915.861 682.382 918.215C717.731 919.342 754.424 920.278 792.453 920.985C845.233 921.966 920.994 952.35 959 979C992.997 952.393 1060.61 922.07 1108.58 921.268C1158.15 920.441 1291.5 910.277 1303 870.147C1311.28 841.24 1326.5 933.725 1416.7 910.277C1457.79 899.595 1433.73 820.491 1464.5 801.727C1516.5 784.195 1496.6 905.606 1554.82 901.111C1700.54 889.861 1590.5 696.532 1636.5 661.468C1712.5 628.351 1792.5 836.997 1836.5 879.133C1880.5 921.268 1919 858.186 1919 858.186V0Z" fill="url(#paint0_linear)"/>
<defs>
<linearGradient id="paint0_linear" x1="959" y1="979" x2="959" y2="1.07169e-05" gradientUnits="userSpaceOnUse">
<stop stop-color="white" stop-opacity="0"/>
<stop offset="0.342401" stop-color="white"/>
<stop offset="0.628956" stop-color="white"/>
<stop offset="1" stop-color="white" stop-opacity="0"/>
<stop offset="1" stop-color="white" stop-opacity="0"/>
</linearGradient>
</defs>
</svg>
