<svg width="30" height="31" viewBox="0 0 30 31" fill="none" xmlns="http://www.w3.org/2000/svg">
<path d="M14.9999 2.51889C15.6848 2.4683 16.3732 2.50189 17.0499 2.61889C18.5306 2.87345 19.931 3.47131 21.139 4.36455C22.347 5.25778 23.3289 6.42157 24.0062 7.76264C28.8562 17.8314 16.5812 28.0314 13.8249 28.8314C13.1687 27.2064 8.3499 18.4064 7.6124 15.4314C6.93651 12.9524 7.01484 10.3282 7.8374 7.89389C8.2999 6.64389 8.4249 5.20014 9.38741 4.29389C10.3767 3.4047 11.596 2.81133 12.9062 2.58139C13.5952 2.43936 14.3036 2.41821 14.9999 2.51889Z" fill="#EAEAE8"/>
<path d="M11.5187 2.12502C10.7585 2.29708 10.0441 2.63057 9.42409 3.10289C8.80404 3.57521 8.29278 4.17531 7.92497 4.86252C7.35622 5.92502 8.97497 6.87502 9.54372 5.80627C9.79563 5.32816 10.1506 4.91195 10.5829 4.5877C11.0152 4.26344 11.5142 4.03924 12.0437 3.93128C12.2778 3.85761 12.4739 3.69568 12.5906 3.47984C12.7073 3.26399 12.7353 3.01119 12.6687 2.77502C12.5911 2.54369 12.4285 2.35047 12.2139 2.23444C11.9992 2.11841 11.7485 2.08824 11.5125 2.15002L11.5187 2.12502Z" fill="black"/>
<path d="M6.93776 7.63757C4.42526 15.6438 10.0003 22.3313 13.019 29.3001C13.1231 29.4781 13.283 29.6169 13.474 29.6949C13.6649 29.7728 13.8763 29.7856 14.0753 29.7313C19.2253 27.9438 23.8503 21.6751 25.4065 16.7001C27.7253 9.32507 23.0815 1.46882 15.0003 1.56882C14.7516 1.56882 14.5132 1.66759 14.3373 1.8434C14.1615 2.01922 14.0628 2.25768 14.0628 2.50632C14.0628 2.75496 14.1615 2.99341 14.3373 3.16923C14.5132 3.34504 14.7516 3.44382 15.0003 3.44382C23.4753 3.33757 25.8628 12.2813 22.5315 18.7688C20.819 22.1001 17.3065 26.6501 13.5753 27.9438L14.6315 28.3751C11.8753 21.8938 6.42526 15.5438 8.75026 8.14382C9.11276 6.98757 7.30026 6.49382 6.94401 7.64382L6.93776 7.63757Z" fill="black"/>
<path d="M17.775 13.3563C15.6812 16.0876 11.975 12.6501 13.9187 10.1688C16 7.50631 19.4187 10.7938 17.775 13.3563C17.125 14.3938 18.75 15.3126 19.375 14.3001C19.9879 13.3315 20.2205 12.1702 20.0277 11.0403C19.835 9.9104 19.2306 8.8919 18.3312 8.18131C17.8668 7.84424 17.3395 7.60356 16.7806 7.47344C16.2217 7.34332 15.6423 7.3264 15.0768 7.42367C14.5112 7.52094 13.9708 7.73044 13.4875 8.03982C13.0041 8.34919 12.5876 8.75219 12.2625 9.22506C11.6907 10.123 11.4411 11.1886 11.5546 12.247C11.6682 13.3055 12.1382 14.2939 12.8875 15.0501C14.925 17.0188 17.8062 16.3751 19.4 14.3001C20.1312 13.3438 18.5 12.4063 17.775 13.3563Z" fill="black"/>
</svg>
