<svg width="1920" height="594" viewBox="0 0 1920 594" fill="none" xmlns="http://www.w3.org/2000/svg">
<path d="M0.00012207 594L1920 594L1920 95.8259C1920 95.8259 1804.68 377.552 1766.74 259.28C1728.8 141.009 1701.3 182.4 1676.88 127.646C1647.04 60.7378 1609.02 37.6114 1593.01 60.4281C1571.05 91.7411 1577.25 168.791 1562.56 166.342C1511.14 157.768 1487.31 59.1429 1465.21 47.786C1443.11 36.4291 1434.49 101.195 1413.29 109.696C1328.12 143.856 1311.32 49.6691 1237.68 47.786C1202.39 46.8834 1191.64 8.0589 1145.71 27.9224C1099.78 47.7859 1031.89 9.97221 965.991 -8.34021e-05C874.134 -9.14325e-05 860.051 44.7006 812.15 45.3419C762.66 46.0045 676.942 70.0003 626.521 95.8259C604.637 107.035 584.586 29.0474 546.646 60.4282C508.705 91.8089 487.512 125.992 456.786 141.009C404.867 155.039 361.923 25.8589 330.983 79.0624C233.136 247.314 259.095 138.28 213.167 166.342C137.285 192.845 129.298 112.783 85.3664 79.0624C41.435 45.3419 4.35518e-05 95.8257 4.35518e-05 95.8257L0.00012207 594Z" fill="#EFEFEF"/>
<path d="M0.00012207 594L1920 594L1920 95.8259C1920 95.8259 1804.68 377.552 1766.74 259.28C1728.8 141.009 1701.3 182.4 1676.88 127.646C1647.04 60.7378 1609.02 37.6114 1593.01 60.4281C1571.05 91.7411 1577.25 168.791 1562.56 166.342C1511.14 157.768 1487.31 59.1429 1465.21 47.786C1443.11 36.4291 1434.49 101.195 1413.29 109.696C1328.12 143.856 1311.32 49.6691 1237.68 47.786C1202.39 46.8834 1191.64 8.0589 1145.71 27.9224C1099.78 47.7859 1031.89 9.97221 965.991 -8.34021e-05C874.134 -9.14325e-05 860.051 44.7006 812.15 45.3419C762.66 46.0045 676.942 70.0003 626.521 95.8259C604.637 107.035 584.586 29.0474 546.646 60.4282C508.705 91.8089 487.512 125.992 456.786 141.009C404.867 155.039 361.923 25.8589 330.983 79.0624C233.136 247.314 259.095 138.28 213.167 166.342C137.285 192.845 129.298 112.783 85.3664 79.0624C41.435 45.3419 4.35518e-05 95.8257 4.35518e-05 95.8257L0.00012207 594Z" fill="url(#paint0_linear)"/>
<defs>
<linearGradient id="paint0_linear" x1="960" y1="-9.04283e-05" x2="960" y2="594" gradientUnits="userSpaceOnUse">
<stop stop-color="white" stop-opacity="0"/>
<stop offset="0.342401" stop-color="white"/>
<stop offset="0.628956" stop-color="white"/>
<stop offset="1" stop-color="white" stop-opacity="0"/>
<stop offset="1" stop-color="white" stop-opacity="0"/>
</linearGradient>
</defs>
</svg>
