<svg width="48" height="49" viewBox="0 0 48 49" fill="none" xmlns="http://www.w3.org/2000/svg">
<path d="M39.9998 37.5347C44.8998 32.1947 45.3898 23.6747 42.9998 17.0247C40.6098 10.3747 34.8898 6.38468 27.9998 5.58468C27.1698 5.48468 26.9998 6.85468 27.7998 7.03468C34.5398 8.47468 39.8498 11.4747 41.9398 18.4747C43.9398 24.9647 42.7098 31.3047 39.3398 37.0647C39.1098 37.4547 39.6598 37.9147 39.9798 37.5647L39.9998 37.5347Z" fill="black"/>
<path d="M13.6301 8.10469C2.59011 13.3547 1.78011 28.5347 8.73011 37.4747C12.5201 42.3547 21.3101 46.9247 27.6501 44.8147C27.8202 44.7648 27.9668 44.6554 28.0631 44.5065C28.1593 44.3577 28.199 44.1792 28.1748 44.0035C28.1505 43.8279 28.0641 43.6668 27.9311 43.5495C27.7981 43.4323 27.6274 43.3667 27.4501 43.3647C21.4001 43.0347 16.2501 42.8447 11.5001 38.3647C8.378 35.1835 6.43734 31.0305 6.00011 26.5947C5.00011 18.9347 8.00011 13.3447 14.0001 8.81469C14.0923 8.75932 14.159 8.66998 14.1859 8.56589C14.2128 8.4618 14.1978 8.3513 14.144 8.25819C14.0903 8.16509 14.0021 8.09683 13.8985 8.06811C13.7949 8.0394 13.6841 8.05254 13.5901 8.10469H13.6301Z" fill="black"/>
<path d="M23.3499 34.2148C23.4899 35.6248 25.6099 35.6948 25.5999 34.2148C25.5465 28.4348 25.4665 22.6548 25.3599 16.8748C25.3539 16.6551 25.2845 16.4418 25.1601 16.2606C25.0357 16.0794 24.8616 15.938 24.6587 15.8534C24.4559 15.7689 24.2329 15.7448 24.0166 15.7841C23.8004 15.8234 23.6001 15.9243 23.4399 16.0748C20.9963 18.2025 18.7041 20.4981 16.5799 22.9448C15.5799 24.0248 17.2099 25.6248 18.1699 24.5348C20.2848 22.0926 22.567 19.8004 24.9999 17.6748L23.0799 16.8748C23.1865 22.6548 23.2665 28.4348 23.3199 34.2148H25.5999C25.4599 32.7848 23.2099 32.7748 23.3499 34.2148Z" fill="black"/>
<path d="M23.44 17.6747C25.8969 19.7881 28.1901 22.0847 30.3 24.5447C31.3 25.6347 32.84 24.0347 31.89 22.9547C29.7706 20.4936 27.4673 18.197 25 16.0847C23.9 15.1547 22.3 16.7447 23.41 17.6747H23.44Z" fill="black"/>
<path d="M24.6698 5.16478C22.0953 5.13668 19.5393 5.60171 17.1398 6.53478C16.4198 6.81478 16.6898 7.95478 17.4698 7.72478C19.8021 7.02913 22.2464 6.7881 24.6698 7.01478C25.8398 7.12478 25.8698 5.17478 24.6698 5.16478Z" fill="black"/>
<path d="M31.4298 43.3247C32.6956 42.8983 33.9124 42.3385 35.0598 41.6547C35.9098 41.1447 37.4198 40.3947 37.6198 39.3447C37.6698 39.0747 37.4998 38.7247 37.1698 38.7547C36.1698 38.8547 35.3998 39.8647 34.5698 40.4347C33.4946 41.1652 32.3407 41.7723 31.1298 42.2447C30.4798 42.5047 30.7398 43.5547 31.4298 43.3147V43.3247Z" fill="black"/>
</svg>
