<svg width="31" height="31" viewBox="0 0 31 31" fill="none" xmlns="http://www.w3.org/2000/svg">
<path d="M12.1132 4.86388C11.7319 4.47013 9.82569 2.30138 8.91319 2.84513C7.42569 3.73263 2.66319 7.12638 6.77569 14.6639C7.72979 16.3885 8.85414 18.0133 10.1319 19.5139C11.7944 21.4951 13.5007 23.4826 15.6507 24.9264C17.8007 26.3701 20.4694 27.2139 22.9944 26.6451C25.1382 26.1639 27.6694 24.1451 28.3882 21.9951C28.4703 21.6943 28.4369 21.3736 28.2947 21.0961C28.1524 20.8185 27.9116 20.6042 27.6194 20.4951C25.9132 19.8701 23.9757 19.1264 22.2757 18.5076C22.0573 18.4307 21.8178 18.4403 21.6062 18.5345C21.3947 18.6286 21.2272 18.8002 21.1382 19.0139C20.7194 19.9514 19.8569 20.9514 19.0569 21.1514C18.0069 21.3889 12.0507 17.4639 11.2757 14.5139C11.2161 14.2147 11.2161 13.9068 11.2757 13.6076C11.4366 12.7 11.926 11.8835 12.6507 11.3139C13.8069 10.3701 15.5194 8.58888 14.1194 7.14513" fill="#EAEAE8"/>
<path d="M12.4443 4.514C10.9381 2.7515 9.51932 1.389 7.48181 3.00775C6.5026 3.75598 5.71298 4.72392 5.17666 5.83346C4.64035 6.94301 4.37236 8.16308 4.39431 9.39525C4.46306 13.7702 7.48182 17.6265 10.1943 20.8015C12.9068 23.9765 16.1881 27.2077 20.6068 27.5702C23.8443 27.8327 28.1943 25.814 29.1068 22.3952C29.2531 22.0025 29.279 21.575 29.181 21.1675C29.083 20.76 28.8657 20.391 28.5568 20.1077C27.4943 19.0265 23.7256 17.7202 22.3068 17.6077C20.3193 17.489 20.4756 20.0452 18.8068 20.1702C17.4131 20.2765 14.9256 17.7702 14.0818 16.9265C12.5193 15.3702 11.6693 14.4265 13.3318 11.9265C13.8381 11.1577 14.7693 10.7515 15.1068 9.80775C15.5506 8.55775 15.2006 7.7765 14.3131 6.94525C14.2771 6.9086 14.2299 6.88498 14.179 6.87811C14.1281 6.87124 14.0764 6.88151 14.032 6.9073C13.9875 6.93309 13.953 6.97294 13.9337 7.02055C13.9144 7.06816 13.9116 7.12083 13.9256 7.17025C14.7381 9.939 9.73182 11.4265 10.4256 14.7202C10.8256 16.5952 12.7443 18.2702 14.1756 19.414C15.3318 20.3452 17.0631 21.8577 18.6318 21.9765C19.2059 22.0354 19.7807 21.8721 20.2381 21.5202C21.9568 20.3765 21.7756 19.5202 24.2131 20.0577C25.6631 20.3765 26.3631 20.5952 26.4943 22.1515C26.6256 23.7077 26.1131 24.164 24.8068 24.9577C22.5693 26.3077 20.0256 26.1202 17.7131 25.064C14.1193 23.4515 11.2381 19.8952 8.98806 16.7577C6.88181 13.789 4.61306 9.72025 6.55057 6.13275C6.95996 5.31479 7.56019 4.60738 8.30056 4.07025C9.73806 3.1765 10.6256 4.1515 11.7381 5.22025C11.8332 5.30643 11.9578 5.35273 12.0861 5.34957C12.2144 5.34641 12.3366 5.29403 12.4273 5.20328C12.5181 5.11252 12.5705 4.99034 12.5736 4.86203C12.5768 4.73372 12.5305 4.60911 12.4443 4.514Z" fill="black"/>
<path d="M13.1069 5.90137C13.2944 6.03887 13.1069 5.90137 13.2507 6.08262L13.1069 5.90137Z" fill="#EAEAE8"/>
<path d="M12.8694 6.30145L12.7881 6.2077L12.8631 5.63895C12.7821 5.73395 12.7376 5.85472 12.7376 5.97957C12.7376 6.10442 12.7821 6.22519 12.8631 6.3202C13.2131 6.8077 14.0256 6.3202 13.6756 5.8452C13.6437 5.82337 13.6162 5.79582 13.5944 5.76395L13.6569 6.00145L13.5194 6.3327C13.5914 6.25872 13.6381 6.16378 13.6527 6.06156C13.6673 5.95935 13.6491 5.85513 13.6006 5.76395C13.5407 5.65903 13.4599 5.56755 13.3631 5.49519C13.2569 5.43908 13.1334 5.4253 13.0174 5.45661C12.9015 5.48792 12.8017 5.562 12.7381 5.66395C12.6835 5.77045 12.6705 5.8935 12.7017 6.00906C12.7329 6.12463 12.8061 6.22441 12.9069 6.28895L12.8694 6.30145Z" fill="black"/>
</svg>
