<svg width="149" height="49" viewBox="0 0 149 49" fill="none" xmlns="http://www.w3.org/2000/svg">
<path d="M129.664 48.0221C142.47 46.4405 150.05 40.6017 148.872 27.949C147.937 17.7698 145.415 4.57016 132.622 2.35833C125.554 1.13349 117.807 1.90645 110.623 1.89455C104.443 1.89455 98.2579 1.89455 92.0687 1.89455C78.6831 1.95005 65.2976 1.95005 51.912 1.89455C51.4178 1.89455 50.9439 2.07685 50.5945 2.40133C50.2451 2.72581 50.0488 3.1659 50.0488 3.62478C50.0488 4.08367 50.2451 4.52376 50.5945 4.84824C50.9439 5.17272 51.4178 5.35501 51.912 5.35501C70.8379 5.49771 89.7766 5.42636 108.703 5.48582C114.503 5.48582 120.317 5.48582 126.13 5.56906C134.21 5.69987 139.883 8.04251 142.636 15.5104C144.527 20.7316 145.394 26.2252 145.197 31.7306C144.774 40.3877 137.885 43.2179 129.716 44.2286C127.155 44.5497 127.155 48.3431 129.716 48.0221H129.664Z" fill="#141414"/>
<path d="M23.7407 0.859896C12.2161 0.943137 2.56106 4.72466 0.768352 16.2476C-0.742649 25.8322 -1.06278 41.1724 9.91118 46.2858C15.0972 48.6641 20.9492 47.6533 26.4041 46.8209C35.4832 45.4344 44.7053 45.0353 53.8839 45.6318C71.3756 46.8209 88.0478 50.0554 105.693 48.3074C108.254 48.0576 108.254 44.2642 105.693 44.5139C80.8642 46.9636 56.6113 39.5908 31.8335 42.3497C25.9688 43.0037 19.0924 45.3582 13.3045 43.5388C5.98002 41.2913 4.53305 33.5856 4.27694 27.4376C4.05926 22.1815 3.70072 15.546 6.56906 10.8726C9.98801 5.29546 17.5046 4.60575 23.7407 4.23711C26.0456 4.09441 26.0968 0.848004 23.7407 0.859896Z" fill="#141414"/>
<path d="M110.969 46.9874C111.968 48.4619 113.748 48.0933 115.438 48.1765C117.737 48.2926 120.041 48.2926 122.34 48.1765C122.802 48.1765 123.245 48.0061 123.572 47.7028C123.898 47.3995 124.082 46.9882 124.082 46.5593C124.082 46.1303 123.898 45.719 123.572 45.4157C123.245 45.1124 122.802 44.942 122.34 44.942C120.041 44.826 117.737 44.826 115.438 44.942C113.748 44.942 111.968 44.5971 110.969 46.1312C110.882 46.2659 110.836 46.42 110.836 46.5771C110.836 46.7342 110.882 46.8883 110.969 47.023V46.9874Z" fill="#141414"/>
<path d="M27.3901 2.79818C29.0676 4.1776 31.7182 4.10625 33.8695 4.39165C36.2297 4.88042 38.6543 5.04469 41.0659 4.87921C42.641 4.65327 42.2312 2.69115 41.0659 2.27495C38.8634 1.47821 36.1616 1.56145 33.8182 1.40686C31.7566 1.26416 29.4517 0.729039 27.5438 1.70415C27.4454 1.75844 27.3616 1.83277 27.2987 1.92152C27.2358 2.01027 27.1955 2.11113 27.1807 2.21649C27.1659 2.32185 27.177 2.42895 27.2133 2.52971C27.2496 2.63048 27.31 2.72227 27.3901 2.79818V2.79818Z" fill="#141414"/>
<path d="M44.5491 5.41429C45.4199 5.41429 46.3162 5.41429 47.187 5.33104C47.5736 5.31351 47.9392 5.1622 48.2117 4.9069C48.4843 4.65161 48.644 4.31082 48.6596 3.95162C48.6562 3.58358 48.4973 3.2315 48.2171 2.97124C47.9368 2.71099 47.5577 2.56341 47.1614 2.5603C46.1626 2.66733 45.1766 2.89327 44.1778 3.07164C42.7436 3.32137 43.0766 5.44996 44.5235 5.44996L44.5491 5.41429Z" fill="#141414"/>
</svg>
