<svg width="42" height="40" viewBox="0 0 42 40" fill="none" xmlns="http://www.w3.org/2000/svg">
<path d="M38.9879 0.7938C40.625 1.75 40.8306 3.38754 41.1877 6.75C41.5246 9.95485 41.5339 13.3622 41.5002 17.25C41.4328 24.9732 42.1875 33.875 40.0863 36.52C35.0584 41.433 26.4202 38.125 19.5627 38.125C15.2842 38.125 11.8939 38.1783 5.56269 38.9375C4.17459 39.104 1.42175 39.3045 1.2196 36.3098C1.05788 33.893 1.28698 29.6595 1.2196 26.875C1.05563 19.524 -0.152503 11.8871 0.687284 4.5625C0.916387 2.56604 1.86648 0.898877 2.20339 0.636184C3.48368 -0.309508 7.06269 0.275129 14.8752 0.793799C30.9377 1.50017 34.1252 -0.812585 38.9879 0.7938Z" fill="#F9F416"/>
<g clip-path="url(#clip0)">
<path d="M7.6999 19.6998C16.5999 19.9998 25.7999 20.7998 34.6999 20.0998C35.5999 19.9998 35.5999 18.7998 34.6999 18.7998C25.7999 17.7998 16.5999 18.2998 7.6999 18.2998C6.7999 18.2998 6.7999 19.6998 7.6999 19.6998Z" fill="#141414"/>
<path d="M8.20006 28.9001C16.5001 29.7001 25.1001 29.9001 33.4001 29.4001C34.4001 29.3001 34.4001 27.9001 33.4001 27.9001C25.0001 27.7001 16.6001 27.7001 8.20006 27.6001C7.30006 27.6001 7.40006 28.8001 8.20006 28.9001Z" fill="#141414"/>
<path d="M8.4001 10.5C16.6001 11 25.2001 11.3 33.4001 10.7C34.3001 10.6 34.3001 9.3 33.4001 9.3C25.1001 8.9 16.7001 9.1 8.4001 9C7.5001 9 7.5001 10.4 8.4001 10.5Z" fill="#141414"/>
</g>
<defs>
<clipPath id="clip0">
<rect width="28.3" height="20.7" fill="white" transform="translate(7 9)"/>
</clipPath>
</defs>
</svg>
