<svg width="63" height="29" viewBox="0 0 63 29" fill="none" xmlns="http://www.w3.org/2000/svg">
<g clip-path="url(#clip0)">
<path d="M2.33333 17.8544C21.1944 18.2433 40.25 18.0488 59.3055 18.0488C62.0278 18.0488 63 14.3544 60.6667 12.9933C54.25 9.10439 47.6389 5.02105 41.2222 1.13216C38.1111 -0.81228 35.3889 4.04883 38.3056 5.99328C45.1111 10.4655 51.9167 14.7433 58.9167 19.2155C59.1111 17.4655 59.3056 15.7155 59.6944 13.9655C49.5833 17.0766 38.6944 19.2155 29.1667 23.6877C26.0556 25.0488 28.3889 29.3266 31.3056 28.7433C41.6111 26.9933 51.5278 22.7155 61.25 19.6044C63.5833 18.8266 64.1667 15.7155 62.0278 14.3544C55.2222 10.0766 48.2222 5.60439 41.4167 1.32661C40.4444 2.88216 39.4722 4.63216 38.5 6.18772C45.1111 10.0766 51.5278 13.9655 58.1389 17.8544C58.3333 16.1044 58.7222 14.3544 59.3055 12.6044C40.25 12.7988 21.1944 12.7988 2.33333 13.1877C-0.777778 13.1877 -0.777778 17.8544 2.33333 17.8544Z" fill="black"/>
</g>
<defs>
<clipPath id="clip0">
<rect width="63" height="28" fill="white" transform="translate(0 0.743164)"/>
</clipPath>
</defs>
</svg>
