<svg width="434" height="176" viewBox="0 0 434 176" fill="none" xmlns="http://www.w3.org/2000/svg">
<path d="M315.323 0.795774C272.346 -1.98348 228.663 2.58243 186.155 8.33945C144.822 14.0965 102.314 21.2431 62.8587 33.5512C36.3205 41.889 6.25963 56.5793 1.56261 82.5851C-3.36925 109.584 21.5249 130.229 47.3585 141.942C81.8816 157.823 122.98 165.764 161.261 170.727C201.421 175.889 242.285 177.08 282.679 173.506C338.339 168.742 439.324 154.25 432.749 89.5333C429.696 60.3511 403.157 34.5438 372.157 23.2283C330.354 7.94242 283.853 14.0965 240.641 20.8461C228.898 22.6327 234.065 36.926 245.573 35.7349C280.096 31.7646 316.967 27.0001 351.255 34.5438C379.203 40.8964 405.036 58.1674 412.786 82.5851C430.635 139.56 332.467 153.258 287.141 157.426C217.391 163.977 145.761 157.029 79.7679 136.781C56.2828 129.634 21.7598 115.936 19.6461 91.5184C17.5325 67.6963 48.7676 54.5941 71.0784 47.8445C108.889 36.529 149.284 29.3823 188.739 23.6253C230.777 17.6698 273.05 15.6846 315.323 11.7143C323.543 10.9202 323.778 1.39133 315.323 0.795774Z" fill="#F9F416"/>
</svg>
