<svg width="31" height="30" viewBox="0 0 31 30" fill="none" xmlns="http://www.w3.org/2000/svg">
<path d="M15.8632 1.87497C16.548 1.82438 17.2365 1.85797 17.9132 1.97497C19.3938 2.22953 20.7943 2.82739 22.0023 3.72062C23.2102 4.61386 24.1922 5.77765 24.8694 7.11872C29.7194 17.1875 17.4444 27.3875 14.6882 28.1875C14.0319 26.5625 9.21319 17.7625 8.47569 14.7875C7.79979 12.3085 7.87812 9.68425 8.70069 7.24997C9.16319 5.99997 9.28819 4.55622 10.2507 3.64997C11.24 2.76078 12.4593 2.16741 13.7694 1.93747C14.4585 1.79544 15.1669 1.77429 15.8632 1.87497Z" fill="#EAEAE8"/>
<path d="M12.382 1.48147C11.6218 1.65353 10.9074 1.98702 10.2874 2.45934C9.66732 2.93165 9.15606 3.53176 8.78825 4.21897C8.2195 5.28147 9.83825 6.23147 10.407 5.16272C10.6589 4.6846 11.0139 4.26839 11.4462 3.94414C11.8785 3.61989 12.3775 3.39568 12.907 3.28772C13.141 3.21405 13.3372 3.05213 13.4539 2.83628C13.5705 2.62043 13.5986 2.36763 13.532 2.13147C13.4544 1.90014 13.2918 1.70691 13.0772 1.59088C12.8625 1.47485 12.6118 1.44468 12.3757 1.50647L12.382 1.48147Z" fill="black"/>
<path d="M7.80104 6.99352C5.28854 14.9998 10.8635 21.6873 13.8823 28.656C13.9864 28.8341 14.1463 28.9729 14.3373 29.0508C14.5282 29.1288 14.7396 29.1416 14.9385 29.0873C20.0885 27.2998 24.7135 21.031 26.2698 16.056C28.5885 8.68102 23.9448 0.824773 15.8635 0.924773C15.6149 0.924773 15.3764 1.02354 15.2006 1.19936C15.0248 1.37518 14.926 1.61363 14.926 1.86227C14.926 2.11091 15.0248 2.34937 15.2006 2.52519C15.3764 2.701 15.6149 2.79977 15.8635 2.79977C24.3385 2.69352 26.726 11.6373 23.3948 18.1248C21.6823 21.456 18.1698 26.006 14.4385 27.2998L15.4948 27.731C12.7385 21.2498 7.28854 14.8998 9.61354 7.49977C9.97604 6.34352 8.16354 5.84977 7.80729 6.99977L7.80104 6.99352Z" fill="black"/>
<path d="M18.6382 12.7126C16.5445 15.4439 12.8382 12.0064 14.782 9.52513C16.8632 6.86263 20.282 10.1501 18.6382 12.7126C17.9882 13.7501 19.6132 14.6689 20.2382 13.6564C20.8512 12.6878 21.0837 11.5265 20.891 10.3966C20.6983 9.26672 20.0939 8.24822 19.1945 7.53763C18.73 7.20057 18.2028 6.95988 17.6439 6.82976C17.0849 6.69964 16.5056 6.68272 15.9401 6.77999C15.3745 6.87726 14.8341 7.08676 14.3508 7.39614C13.8674 7.70552 13.4509 8.10851 13.1257 8.58138C12.5539 9.47929 12.3043 10.5449 12.4179 11.6034C12.5315 12.6618 13.0015 13.6502 13.7507 14.4064C15.7882 16.3751 18.6695 15.7314 20.2632 13.6564C20.9945 12.7001 19.3632 11.7626 18.6382 12.7126Z" fill="black"/>
</svg>
