<svg width="595" height="77" viewBox="0 0 595 77" fill="none" xmlns="http://www.w3.org/2000/svg">
<path d="M454.658 2.79993C473.458 2.29993 492.158 1.79993 510.958 1.19993C528.358 0.599927 547.058 -1.80007 564.158 2.29993C572.458 4.09993 580.458 7.89993 585.758 14.2999C590.758 20.3999 591.158 26.5999 590.658 33.9999C589.658 48.6999 603.858 67.3999 580.458 70.2999C503.858 79.8999 426.557 75.0999 349.758 73.1999C339.858 72.9999 253.057 74.5999 232.357 74.5999C190.758 74.5999 149.158 74.6999 107.558 74.6999C86.7575 74.6999 66.0575 74.6999 45.2575 74.7999C37.1575 74.7999 29.5575 74.4999 21.4575 74.7999C16.0575 74.9999 6.6575 75.5999 3.6575 69.8999C1.2575 65.2999 2.1575 56.5999 1.1575 51.2999C-0.0424957 44.3999 1.0575 37.3999 0.857504 30.3999C0.557504 22.4999 -1.1425 14.7999 4.7575 8.19993C8.1575 4.39993 13.2575 2.49993 18.2575 1.99993C37.2575 0.199927 55.4575 1.69993 74.0575 2.29993C94.8575 2.89993 115.658 3.29993 136.458 3.69993C178.057 4.49993 219.658 4.89993 261.258 4.99993C325.758 5.09993 390.258 4.39993 454.658 2.79993Z" fill="#F9F416"/>
</svg>
