<svg width="31" height="30" viewBox="0 0 31 30" fill="none" xmlns="http://www.w3.org/2000/svg">
<path d="M3.82373 15.8375C3.82373 9.44997 7.57373 3.64372 15.805 3.74997C24.0362 3.85622 28.13 9.44997 28.13 15.8375C28.13 22.225 22.6925 27.4062 15.98 27.4062C9.26748 27.4062 3.82373 22.2312 3.82373 15.8375Z" fill="#EAEAE8"/>
<path d="M9.15491 4.6624C2.37366 7.95615 1.59241 16.9312 5.61116 22.7437C8.14866 26.4124 12.7862 28.3687 17.1924 28.0499C20.2881 27.8211 23.1847 26.4374 25.3079 24.1729C27.4311 21.9085 28.6257 18.9289 28.6549 15.8249C28.7862 9.4874 25.0737 3.3374 18.1987 2.9624C18.0311 2.9632 17.8694 3.02462 17.7436 3.13533C17.6178 3.24604 17.5363 3.39854 17.5142 3.56466C17.4922 3.73078 17.5309 3.89929 17.6234 4.03903C17.7159 4.17878 17.8559 4.28033 18.0174 4.3249C21.0299 5.1874 23.7112 5.9249 25.5174 8.73115C26.7098 10.7759 27.3012 13.1154 27.2237 15.4812C27.2829 18.3642 26.2058 21.1549 24.2248 23.2505C22.2438 25.3461 19.518 26.5784 16.6362 26.6812C14.917 26.753 13.2027 26.4504 11.612 25.7943C10.0213 25.1382 8.59223 24.1442 7.42366 22.8812C5.71619 20.8031 4.70597 18.2404 4.53616 15.5562C4.12991 11.1812 6.06116 7.86865 9.53616 5.3249C9.6095 5.26698 9.65944 5.1845 9.67678 5.09267C9.69411 5.00083 9.67767 4.90583 9.63048 4.82516C9.5833 4.74448 9.50855 4.68358 9.42001 4.65368C9.33146 4.62377 9.2351 4.62687 9.14866 4.6624H9.15491Z" fill="black"/>
<path d="M16.2612 7.18774C16.2447 7.01269 16.1635 6.85011 16.0335 6.73177C15.9034 6.61343 15.7339 6.54785 15.5581 6.54785C15.3823 6.54785 15.2128 6.61343 15.0828 6.73177C14.9527 6.85011 14.8715 7.01269 14.855 7.18774C14.8966 10.3544 14.9529 13.519 15.0237 16.6815C15.0275 16.8188 15.0708 16.9521 15.1486 17.0654C15.2263 17.1786 15.3351 17.267 15.4619 17.3198C15.5887 17.3726 15.7281 17.3877 15.8633 17.3632C15.9984 17.3386 16.1236 17.2755 16.2237 17.1815C17.9164 15.7135 19.5017 14.1261 20.9675 12.4315C21.5925 11.7565 20.5737 10.7565 19.9737 11.4377C18.5079 13.1323 16.9226 14.7197 15.23 16.1877L16.43 16.6877C16.3633 13.5211 16.3071 10.3565 16.2612 7.19399H14.855C14.8862 8.09399 16.2925 8.10024 16.2612 7.19399V7.18774Z" fill="black"/>
<path d="M11.4302 4.8501C11.5835 4.8501 11.7306 4.78919 11.839 4.68077C11.9474 4.57235 12.0083 4.4253 12.0083 4.27197C12.0083 4.11864 11.9474 3.9716 11.839 3.86318C11.7306 3.75476 11.5835 3.69385 11.4302 3.69385C11.2768 3.69385 11.1298 3.75476 11.0214 3.86318C10.913 3.9716 10.8521 4.11864 10.8521 4.27197C10.8521 4.4253 10.913 4.57235 11.0214 4.68077C11.1298 4.78919 11.2768 4.8501 11.4302 4.8501Z" fill="black"/>
<path d="M14.0113 3.18141C13.7834 3.14378 13.5495 3.18571 13.3488 3.30016L13.2488 3.33766L13.1301 3.38141C12.9863 3.44391 13.0863 3.38141 13.1988 3.38141C12.9363 3.38141 12.8113 3.63141 12.8426 3.85016C12.8955 3.99506 13.0001 4.11527 13.1363 4.18766C13.2301 4.25016 13.1363 4.18766 13.2301 4.24391C13.2664 4.27179 13.2999 4.30319 13.3301 4.33766L13.1551 4.03141C13.1856 4.15096 13.2471 4.26033 13.3335 4.34843C13.4199 4.43653 13.528 4.50025 13.6469 4.53312C13.7658 4.56598 13.8913 4.56684 14.0107 4.5356C14.13 4.50435 14.239 4.44212 14.3265 4.3552C14.4141 4.26828 14.4771 4.15976 14.5092 4.04064C14.5414 3.92152 14.5414 3.79603 14.5094 3.67688C14.4774 3.55772 14.4145 3.44914 14.327 3.36213C14.2396 3.27513 14.1307 3.21278 14.0113 3.18141Z" fill="black"/>
<path d="M15.8609 4.4499C16.0748 4.4499 16.2798 4.36496 16.431 4.21376C16.5822 4.06256 16.6672 3.85748 16.6672 3.64365C16.6672 3.42982 16.5822 3.22475 16.431 3.07355C16.2798 2.92235 16.0748 2.8374 15.8609 2.8374C15.6471 2.8374 15.442 2.92235 15.2908 3.07355C15.1396 3.22475 15.0547 3.42982 15.0547 3.64365C15.0547 3.85748 15.1396 4.06256 15.2908 4.21376C15.442 4.36496 15.6471 4.4499 15.8609 4.4499Z" fill="black"/>
</svg>
