<svg width="46" height="30" viewBox="0 0 46 30" fill="none" xmlns="http://www.w3.org/2000/svg">
<g clip-path="url(#clip0)">
<path d="M34.1999 2.02018C37.0999 2.12018 39.0999 2.52018 41.1999 4.62018C43.2999 6.62018 43.5999 9.82018 43.6999 12.7202C43.8999 16.0202 43.9999 19.3202 44.1999 22.5202C44.2999 24.0202 44.2999 25.6202 43.2999 26.7202C42.2999 27.8202 40.4999 27.9202 38.9999 28.0202C29.2999 28.1202 19.5999 28.2202 9.79994 28.3202C7.69994 28.3202 5.39994 28.3202 3.99994 26.8202C2.59994 25.5202 2.39994 23.4202 2.29994 21.5202C1.89994 15.4202 2.19994 9.32018 2.99994 3.22018C3.29994 1.32018 4.79994 1.52018 6.69994 1.62018C15.4999 1.82018 15.5999 1.62018 24.2999 1.82018" fill="#F2C94C"/>
<path d="M34.2 2.72039C41.4 3.12039 42.7 8.32039 43 14.6204C43.1 17.0204 43.8 20.1204 43.4 22.5204C42.4 28.0204 40.7 27.2204 37 27.3204C27.8 27.6204 18.3 28.0204 9.10003 27.6204C2.00003 27.2204 2.80003 20.4204 2.90003 15.1204C2.90003 11.8204 2.10003 3.52039 6.10003 2.42039C8.60003 1.72039 12.4 2.52039 15.1 2.52039C18.2 2.52039 21.3 2.52039 24.4 2.62039C25.4 2.62039 25.4 1.12039 24.4 1.12039C19.1 1.02039 13.8 1.02039 8.50003 0.920388C4.20003 0.820388 2.60003 0.620389 2.00003 5.12039C1.30003 11.0204 -0.199965 19.6204 2.10003 25.3204C3.70004 29.4204 7.90003 29.1204 11.7 29.1204C19.5 29.0204 27.3 28.9204 35 28.8204C39.4 28.7204 44 29.5204 44.9 24.2204C45.4 21.3204 44.7 17.5204 44.5 14.6204C44.4 12.0204 44.4 9.12039 43.4 6.72039C41.8 2.82039 38.1 1.52039 34.2 1.22039C33.3 1.22039 33.3 2.72039 34.2 2.72039Z" fill="black"/>
<path d="M26.2998 1.92041C26.8998 1.92041 27.6998 2.12041 28.2998 2.02041L26.2998 1.92041Z" fill="white"/>
<path d="M26.2998 2.62029C26.9998 2.62029 27.5998 2.82029 28.2998 2.72029C29.2998 2.72029 29.2998 1.22029 28.2998 1.22029C27.5998 1.22029 26.9998 1.02029 26.2998 1.12029C25.2998 1.22029 25.2998 2.72029 26.2998 2.62029Z" fill="black"/>
<path d="M29.9997 2.72021C30.1997 2.72021 30.2997 2.72021 30.4997 2.72021C31.4997 2.72021 31.4997 1.22021 30.4997 1.22021C30.2997 1.22021 30.1997 1.22021 29.9997 1.22021C29.0997 1.22021 29.0997 2.72021 29.9997 2.72021Z" fill="black"/>
<path d="M32.1001 2.82031C32.2001 2.82031 32.2001 2.82031 32.3001 2.82031C33.3001 2.82031 33.3001 1.32031 32.3001 1.32031C32.2001 1.32031 32.2001 1.32031 32.1001 1.32031C31.1001 1.32031 31.1001 2.82031 32.1001 2.82031Z" fill="black"/>
<path d="M7.7998 4.42041C10.0998 8.42041 12.5998 12.6204 16.2998 15.4204C19.9998 18.2204 25.2998 19.5204 29.3998 17.2204C33.0998 15.1204 34.7998 10.9204 36.2998 7.02041" fill="#F2C94C"/>
<path d="M7.19986 4.82022C10.8999 11.1202 15.3999 18.3202 23.3999 19.1202C30.9999 19.9202 34.5999 13.4202 36.8999 7.22022C37.1999 6.32022 35.7999 5.92022 35.4999 6.82022C32.8999 13.6202 28.4999 19.9202 20.2999 16.7202C14.5999 14.5202 11.3999 9.02022 8.49986 4.02022C7.99986 3.22022 6.69986 3.92022 7.19986 4.82022Z" fill="black"/>
<path d="M14.4 14.2203C10.9 17.2203 7.99996 20.7203 5.79996 24.7203C5.29996 25.5203 6.59996 26.3203 7.09996 25.5203C9.19996 21.6203 12 18.2203 15.4 15.3203C16.2 14.6203 15.2 13.5203 14.4 14.2203Z" fill="black"/>
<path d="M31.2999 16.1205C34.8999 18.0205 37.7999 20.7205 39.9999 24.2205C40.4999 25.0205 41.7999 24.3205 41.2999 23.4205C38.9999 19.8205 35.7999 16.8205 31.9999 14.8205C31.1999 14.3205 30.3999 15.6205 31.2999 16.1205Z" fill="black"/>
</g>
<defs>
<clipPath id="clip0">
<rect width="44.2" height="28.1" fill="white" transform="translate(0.899902 0.92041)"/>
</clipPath>
</defs>
</svg>
