<svg width="31" height="30" viewBox="0 0 31 30" fill="none" xmlns="http://www.w3.org/2000/svg">
<path d="M12.1132 4.72484C11.7319 4.33109 9.82569 2.16234 8.91319 2.70609C7.42569 3.59359 2.66319 6.98734 6.77569 14.5248C7.72979 16.2495 8.85414 17.8742 10.1319 19.3748C11.7944 21.3561 13.5007 23.3436 15.6507 24.7873C17.8007 26.2311 20.4694 27.0748 22.9944 26.5061C25.1382 26.0248 27.6694 24.0061 28.3882 21.8561C28.4703 21.5552 28.4369 21.2346 28.2947 20.957C28.1524 20.6795 27.9116 20.4652 27.6194 20.3561C25.9132 19.7311 23.9757 18.9873 22.2757 18.3686C22.0573 18.2917 21.8178 18.3013 21.6062 18.3955C21.3947 18.4896 21.2272 18.6611 21.1382 18.8748C20.7194 19.8123 19.8569 20.8123 19.0569 21.0123C18.0069 21.2498 12.0507 17.3248 11.2757 14.3748C11.2161 14.0757 11.2161 13.7677 11.2757 13.4686C11.4366 12.561 11.926 11.7445 12.6507 11.1748C13.8069 10.2311 15.5194 8.44984 14.1194 7.00609" fill="#EAEAE8"/>
<path d="M12.4443 4.3752C10.9381 2.6127 9.51932 1.2502 7.48181 2.86895C6.5026 3.61719 5.71298 4.58513 5.17666 5.69467C4.64035 6.80421 4.37236 8.02429 4.39431 9.25645C4.46306 13.6315 7.48182 17.4877 10.1943 20.6627C12.9068 23.8377 16.1881 27.069 20.6068 27.4315C23.8443 27.694 28.1943 25.6752 29.1068 22.2565C29.2531 21.8637 29.279 21.4363 29.181 21.0288C29.083 20.6213 28.8657 20.2523 28.5568 19.969C27.4943 18.8877 23.7256 17.5815 22.3068 17.469C20.3193 17.3502 20.4756 19.9065 18.8068 20.0315C17.4131 20.1377 14.9256 17.6315 14.0818 16.7877C12.5193 15.2315 11.6693 14.2877 13.3318 11.7877C13.8381 11.019 14.7693 10.6127 15.1068 9.66895C15.5506 8.41895 15.2006 7.6377 14.3131 6.80645C14.2771 6.76981 14.2299 6.74619 14.179 6.73932C14.1281 6.73245 14.0764 6.74272 14.032 6.76851C13.9875 6.7943 13.953 6.83414 13.9337 6.88175C13.9144 6.92936 13.9116 6.98203 13.9256 7.03145C14.7381 9.8002 9.73182 11.2877 10.4256 14.5815C10.8256 16.4565 12.7443 18.1315 14.1756 19.2752C15.3318 20.2065 17.0631 21.719 18.6318 21.8377C19.2059 21.8966 19.7807 21.7334 20.2381 21.3815C21.9568 20.2377 21.7756 19.3815 24.2131 19.919C25.6631 20.2377 26.3631 20.4565 26.4943 22.0127C26.6256 23.569 26.1131 24.0252 24.8068 24.819C22.5693 26.169 20.0256 25.9815 17.7131 24.9252C14.1193 23.3127 11.2381 19.7565 8.98806 16.619C6.88181 13.6502 4.61306 9.58145 6.55057 5.99395C6.95996 5.176 7.56019 4.46858 8.30056 3.93145C9.73806 3.0377 10.6256 4.0127 11.7381 5.08145C11.8332 5.16763 11.9578 5.21394 12.0861 5.21078C12.2144 5.20762 12.3366 5.15524 12.4273 5.06448C12.5181 4.97373 12.5705 4.85155 12.5736 4.72324C12.5768 4.59493 12.5305 4.47032 12.4443 4.3752Z" fill="black"/>
<path d="M13.1069 5.76221C13.2944 5.89971 13.1069 5.76221 13.2507 5.94346L13.1069 5.76221Z" fill="#EAEAE8"/>
<path d="M12.8694 6.16253L12.7881 6.06878L12.8631 5.50003C12.7821 5.59504 12.7376 5.7158 12.7376 5.84065C12.7376 5.96551 12.7821 6.08627 12.8631 6.18128C13.2131 6.66878 14.0256 6.18128 13.6756 5.70628C13.6437 5.68445 13.6162 5.6569 13.5944 5.62503L13.6569 5.86253L13.5194 6.19378C13.5914 6.1198 13.6381 6.02486 13.6527 5.92264C13.6673 5.82043 13.6491 5.71622 13.6006 5.62503C13.5407 5.52011 13.4599 5.42864 13.3631 5.35628C13.2569 5.30017 13.1334 5.28638 13.0174 5.31769C12.9015 5.349 12.8017 5.42309 12.7381 5.52503C12.6835 5.63153 12.6705 5.75458 12.7017 5.87014C12.7329 5.98571 12.8061 6.0855 12.9069 6.15003L12.8694 6.16253Z" fill="black"/>
</svg>
